<svg xmlns="http://www.w3.org/2000/svg" width="22" height="22" fill="#AEB9E0"><g clip-path="url(#a)"><path d="M11 11a5.5 5.5 0 1 0 0-11 5.5 5.5 0 0 0 0 11Zm3.667-5.5a3.666 3.666 0 1 1-7.333 0 3.666 3.666 0 0 1 7.333 0ZM22 20.167C22 22 20.167 22 20.167 22H1.833S0 22 0 20.167c0-1.834 1.833-7.334 11-7.334s11 5.5 11 7.334Zm-1.833-.008c-.002-.45-.283-1.807-1.526-3.05-1.195-1.196-3.444-2.442-7.641-2.442-4.198 0-6.446 1.246-7.641 2.442-1.243 1.243-1.522 2.6-1.526 3.05h18.334Z"/></g><defs><clipPath id="a"><path fill="#fff" d="M0 0h22v22H0z"/></clipPath></defs></svg>